<?xml version="1.0" encoding="utf-8"?>
<!-- Generator: Adobe Illustrator 19.0.0, SVG Export Plug-In . SVG Version: 6.00 Build 0)  -->
<svg version="1.1" id="Ebene_1" xmlns="http://www.w3.org/2000/svg" xmlns:xlink="http://www.w3.org/1999/xlink" x="0px" y="0px"
	 viewBox="0 0 864 203.3" style="enable-background:new 0 0 864 203.3;" xml:space="preserve">
<style type="text/css">
	.st0{fill-rule:evenodd;clip-rule:evenodd;fill:#FFA720;}
</style>
<g>
	<path class="st0" d="M52.3,36.7l24,24L137,0l0.4,0.2c1.2,0.5,3.3,1.8,6.3,3.9h-0.1c0.9,0.5,3.8,2.8,8.7,6.7
		c4.7,3.8,9.3,7.9,14,12.6l0.1,0.1c5.1,4.9,9.6,10.3,13.7,16.2c4.5,6.7,7.5,13.7,8.9,20.8c1.5,7.3,0.9,15.1-1.8,23.6
		c-2.2,7.9-7.6,16.1-15.9,24.6l-95.1,94.6l-57.6-57.6C10.1,137.3,4.8,129,2.5,121h0.1c-2.6-8.2-3.2-16-1.8-23.1
		C2.1,90.5,5,83.4,9.4,76.8l-0.1,0.3l0.1-0.2l0.1-0.3c4.2-5.9,8.8-11.3,13.9-16.2c4.6-4.6,9.1-8.8,13.8-12.5l1.1-1
		c4.5-3.7,9.1-7,13.8-10L52.3,36.7z M50.3,62.1c-0.3,0.2-0.6,0.4-0.9,0.7c-4.1,3.3-8.2,7.1-12.3,11.3L37,74.2
		c-4.1,3.9-7.8,8.2-11,12.9l-0.4,0.6c-3,4.2-4.9,8.7-5.7,13.5c-0.8,4.5-0.4,9.2,1.1,14c1.8,5.5,5.6,11.1,11.4,16.8l43.8,43.9
		l81.1-80.8c5.7-5.9,9.6-11.5,11.5-16.9v0.1c1.4-4.9,1.7-9.4,0.9-13.7v-0.2l-0.1-0.2c-0.9-4.8-2.6-9.2-5.3-13.3
		c-0.1-0.1-0.2-0.3-0.3-0.4c-3.4-4.8-7.2-9.3-11.3-13.4v-0.1l-0.1-0.1c-4.1-4.2-8.2-7.8-12.3-11.1l-0.9-0.8L76.3,88.2L50.3,62.1z"/>
	<g id="text">
		<path d="M238.7,127.8c7.7,0,14.6,2.1,14.6,2.1c0.3-9.7-2.5-14.3-10.5-14.3c-6.9,0-16.9,1.5-21.4,2.8c-2.5,0.8-3.9-1-4.3-3.3
			l-1.6-8.5c-0.7-2.8,0.8-4.1,2.5-4.6c1.6-0.7,13.6-3.8,26-3.8c23.7,0,28.6,12.3,28.6,33v40.9c0,2-1.6,3.6-3.6,3.6h-5.6
			c-1.3,0-2.3-0.5-3.3-2.6l-2.1-5.1c-4.4,4.3-12,9.5-23.8,9.5c-15.1,0-25.6-9.7-25.6-26C208.5,138.2,219.5,127.8,238.7,127.8z
			 M239.2,162.3c6.7,0,12.7-5.3,13.6-8.1v-11.2c0,0-5.1-2.3-11.2-2.3c-8.7,0-13.5,4.1-13.5,10.8
			C228.2,158.1,232.1,162.3,239.2,162.3z"/>
		<path d="M285.4,170.7c-1-0.7-1.8-2.5-1-4.1l4.9-9.9c0.8-1.8,2.6-2.5,4.4-1.3c3.5,2.1,8.9,4.9,16.8,4.9c5.8,0,8.4-2.1,8.4-5.4
			c0-3.5-4.3-6.6-14.3-10.5c-14.6-5.6-21.2-12.5-21.2-24c0-11.5,8.7-22.2,27.3-22.2c11.2,0,18.4,3,22.5,5.6c1.6,1.3,2.6,3.3,1.6,5.3
			l-4.3,8.7c-1.2,1.8-3.1,2.1-4.8,1.5c-3.6-1.6-8.9-3.8-15.1-3.8c-5.1,0-7.2,2.5-7.2,4.9c0,3.5,3.8,5.3,10.8,8.2
			c14.6,5.9,25.1,11.2,25.1,26.3c0,12-10.2,22.7-29.3,22.7C297.5,177.6,289.6,173.7,285.4,170.7z"/>
		<path d="M349.1,64.4c0-1.8,1.8-3.6,3.6-3.6H366c2,0,3.6,1.8,3.6,3.6v64.3l26.1-26.5c1.3-1.1,2.6-2.3,4.8-2.3H416
			c3.1,0,4.3,3.5,2.5,5.6l-30.1,29.6l31.6,35.3c2,2.1,0.8,5.4-2.3,5.4h-16.1c-1.3,0-2.8-0.7-3.3-1.5l-28.6-34.2v32
			c0,2-1.6,3.6-3.6,3.6h-13.3c-1.8,0-3.6-1.6-3.6-3.6V64.4z"/>
		<path d="M485.6,59.1c16.6,0,28.6,5.8,39.8,15.3c1.3,1.3,1.5,3.3,0.2,4.6l-4.4,4.4c-1.3,1.6-2.6,1.5-4.3-0.2
			c-8.5-7.4-19.4-12.3-31.4-12.3c-26,0-45.9,21.9-45.9,47.3c0,25.3,19.9,47.2,45.9,47.2c14.3,0,22.7-4.9,31.4-12.3
			c1.6-1.3,3-1.2,4.3,0.2l3.8,3.8c1.3,1,1,3.3-0.2,4.4c-10.8,9.9-24.5,15.9-39.1,15.9c-32.9,0-59.3-26.1-59.3-59
			C426.3,85.6,452.7,59.1,485.6,59.1z"/>
		<path d="M536.5,64.4c0-1.8,1.6-3.6,3.6-3.6h4.9c1.8,0,3.6,1.8,3.6,3.6v43.6c0,0,8.9-9.7,24.2-9.7c18.9,0,27.4,11.7,27.4,33.9v40.1
			c0,2-1.8,3.6-3.6,3.6h-5.1c-2,0-3.6-1.6-3.6-3.6v-40.1c0-14.5-4.3-22.8-15.9-22.8c-14.5,0-23.3,10.8-23.3,10.8v52.1
			c0,2-1.8,3.6-3.6,3.6h-4.9c-2,0-3.6-1.6-3.6-3.6V64.4z"/>
		<path d="M641.2,127.7c8.1,0,16.3,2.5,16.3,2.5c0.2-14-1.6-20.9-12.5-20.9c-10.4,0-19.1,3.3-22.5,4.4c-2,0.8-3-0.2-3.6-2l-1.6-4.4
			c-0.7-2.3,0.5-3.3,2.3-4.1c3.8-1.6,13.6-4.9,26.1-4.9c19.4,0,23.5,9.5,23.5,31.9v42.1c0,2-1.6,3.6-3.6,3.6h-3.1
			c-2,0-2.6-1.1-3.1-2.8l-1.5-5.1c-3.9,3.9-11.8,9.7-23.5,9.7c-13.3,0-23.5-9.5-23.5-24.8C610.8,138.3,621.7,127.7,641.2,127.7z
			 M636.5,166.6c9.4,0,17.6-5.3,20.9-10.2V141c-2.5-1.3-8.5-3-16.1-3c-10.5,0-18.4,5.1-18.4,14.8
			C622.8,160.5,628.1,166.6,636.5,166.6z"/>
		<path d="M683.8,103.5c0-1.8,1.6-3.6,3.6-3.6h2.6c1.5,0,2.8,0.8,3.3,2.6l1.3,5.4c0,0,7.6-9.7,23.3-9.7c5.8,0,15.1,0.8,13.3,6.1
			l-2.1,5.9c-0.8,2.5-2.6,2.6-4.4,1.8c-1.8-0.8-4.6-2.1-8.2-2.1c-14.6,0-20.5,9.7-20.5,9.7v52.6c0,2-1.8,3.6-3.6,3.6h-4.9
			c-2,0-3.6-1.6-3.6-3.6V103.5z"/>
		<path d="M739.4,64.4c0-1.8,1.6-3.6,3.6-3.6h4.9c1.8,0,3.6,1.8,3.6,3.6v107.8c0,2-1.8,3.6-3.6,3.6H743c-2,0-3.6-1.6-3.6-3.6V64.4z"
			/>
		<path d="M765.5,71.4c0-5.3,3.9-9.2,8.9-9.2c5.1,0,9,3.9,9,9.2c0,4.8-3.9,8.9-9,8.9C769.5,80.3,765.5,76.2,765.5,71.4z
			 M768.6,103.5c0-1.8,1.6-3.6,3.6-3.6h4.9c1.8,0,3.6,1.8,3.6,3.6v68.7c0,2-1.8,3.6-3.6,3.6h-4.9c-2,0-3.6-1.6-3.6-3.6V103.5z"/>
		<path d="M829.6,98.2c19.9,0,34.4,14.6,34.4,34.5c0,1.3-0.2,3.3-0.3,4.6c-0.2,2-1.8,3.3-3.5,3.3H805c0.3,12.7,11,26,24.8,26
			c10,0,16.3-3.5,20.5-6.2c2.6-1.8,3.8-2.5,5.8,0.5l2,2.8c1.5,2.3,2.1,3.1-0.7,5.3c-4.6,3.6-14.6,8.7-27.8,8.7
			c-23,0-36.8-18.1-36.8-39.8C792.8,116.5,806.6,98.2,829.6,98.2z M851.8,130.9c-0.3-11.2-9.2-21.7-22.2-21.7
			c-12.8,0-23,9.9-24.5,21.7H851.8z"/>
	</g>
</g>
</svg>
